PathFileType	4	(X/Y/Z)	C:/Users/beibeiliu/ov580/test_trc\sequence.6_training_dense_right.trc
DataRate	CameraRate	NumFrames	NumMarkers	Units	OrigDataRate	OrigDataStartFrame	OrigNumFrames
120	120	12	19	mm	120	1	125
Frame#	Time	ThumbCMC			ThumbMCP			ThumbIP			ThumbTip			IndexMCP			IndexPIP			IndexTip			MiddleMCP			MiddlePIP			MiddleTip			RingMCP			RingPIP			RingTip			PinkyMCP			PinkyPIP			PinkyTip			BackHand1			BackHand2			BackHand3	
		X0	Y0	Z0	X1	Y1	Z1	X2	Y2	Z2	X3	Y3	Z3	X4	Y4	Z4	X5	Y5	Z5	X6	Y6	Z6	X7	Y7	Z7	X8	Y8	Z8	X9	Y9	Z9	X10	Y10	Z10	X11	Y11	Z11	X12	Y12	Z12	X13	Y13	Z13	X14	Y14	Z14	X15	Y15	Z15	X16	Y16	Z16	X17	Y17	Z17	X18	Y18	Z18	
0	0	34.4202	58.2973	92.2626	13.965	39.7906	73.79	8.40545	29.6441	51.6315	6.72303	20.0643	33.154	29.353	63.6509	24.6918	23.1097	49.9443	1.32245	14.9703	37.857	-13.1847	52.7417	61.8355	15.4616	45.2651	51.511	-7.23672	44.5589	33.651	-28.718	69.3778	55.6965	18.9825	66.3156	44.9288	-2.95646	64.5223	30.9498	-21.3657	87.2692	49.6095	28.9056	89.5104	40.8734	11.5418	91.9103	33.432	-3.82939	75.4402	72.6178	62.1729	78.8924	79.5754	88.9034	52.2716	80.1617	79.5296	
1	0.00833333	30.5177	58.9811	86.6706	16.6942	41.7806	73.6089	8.89369	31.1486	49.1604	2.91961	19.2852	34.4125	28.5528	63.2583	23.8255	20.0108	51.5642	0.507137	17.3305	34.7404	-16.6916	48.6202	62.6127	15.9813	43.4603	49.8355	-11.3987	43.1433	33.223	-31.3085	66.2312	56.4512	16.1939	70.5842	45.9142	-1.56517	62.6708	31.8082	-21.5971	86.1553	50.0503	29.3122	89.7206	41.1557	9.84297	87.5768	32.8609	-7.49509	74.2066	72.3429	61.4724	77.9795	78.8648	87.5327	50.2112	81.5871	75.3081	
2	0.0166667	29.9848	59.0573	91.8563	16.8817	41.6277	70.8498	7.37229	31.0176	49.8293	5.4557	21.402	32.749	28.6794	63.1492	23.1304	19.6652	53.3605	3.67394	18.1395	37.0059	-14.7548	47.9708	61.5431	10.8864	43.3755	50.4888	-11.2001	43.5375	32.3256	-32.3195	69.2581	56.6359	17.2462	66.6558	47.1555	-1.26653	63.7709	32.1276	-20.3916	86.596	51.4031	27.493	90.0225	42.0051	12.5377	89.474	35.8682	-4.23441	74.713	72.7197	60.0869	80.2361	79.535	84.1183	52.2266	82.0401	76.2151	
3	0.025	28.9131	58.1375	89.3573	14.7137	40.7758	73.7662	8.26294	31.0383	48.4228	4.22098	19.5679	31.6193	26.9359	63.5142	25.4517	19.2988	50.2057	0.724824	19.0349	35.4561	-15.8182	52.3516	61.3554	12.742	47.2374	48.7963	-11.9603	46.3105	32.4097	-30.3724	67.8707	57.3378	15.7465	67.5967	45.3935	-5.08657	62.5488	31.3067	-20.3401	86.8493	51.4947	28.8897	89.1346	43.1909	14.2654	90.6969	33.595	-7.50944	72.3049	74.4092	60.7132	79.3428	77.2207	87.6987	48.0741	80.3736	73.9772	
4	0.0333333	28.9166	59.1865	87.4164	16.9709	41.6369	71.6736	8.99637	31.7857	48.9279	7.14882	20.2781	29.7093	29.7185	64.2465	20.9137	21.0796	54.3995	2.04084	20.7732	37.0446	-15.6261	49.9842	63.7302	15.9229	46.5715	48.9845	-11.7741	44.5445	33.8908	-29.3247	69.288	57.2728	20.3634	65.6072	44.5941	-5.31244	62.789	29.4586	-21.7248	89.6548	50.8394	31.0966	90.1193	40.9881	8.92306	89.413	29.5392	-7.33425	75.273	73.6354	63.6248	83.9247	78.3898	86.9031	55.8416	80.3412	76.5887	
5	0.0416667	32.1802	61.8573	83.8921	20.9348	45.3342	67.8821	13.6146	35.5987	49.6244	10.7192	24.9192	29.4035	32.5713	69.2536	21.0028	30.1346	57.6548	-2.59577	18.4959	41.4905	-19.5856	57.5286	65.6444	14.1609	53.7884	52.7023	-11.3809	46.3635	33.3388	-27.2736	71.8411	57.6267	15.9586	71.6366	44.6747	-4.21692	61.1652	28.3347	-16.1752	93.4255	47.8565	27.0212	90.135	39.8986	10.8494	86.7502	21.6282	-7.69218	83.4769	71.1788	59.891	84.9584	75.7285	84.4304	59.9479	81.4893	71.8324	
6	0.05	38.7893	67.0597	80.9209	20.4476	52.4456	64.0676	13.1613	42.1203	40.9855	12.707	29.3795	23.1672	44.2246	77.2664	17.7303	35.5257	68.7872	-6.65215	32.2907	51.0489	-22.9504	63.0541	70.04	11.2419	56.8335	54.3854	-12.8894	45.7024	28.6223	-21.8604	81.2643	56.3312	14.5258	73.6068	40.7197	-4.41424	59.4428	21.8442	-9.58327	93.7707	46.1796	28.8647	89.9665	30.1246	9.39207	73.4503	13.4414	0.375979	87.4675	71.8001	62.5148	88.9639	73.8761	86.6738	65.8868	83.8736	71.3619	
7	0.0583333	41.8107	74.3924	80.8143	24.1827	60.3076	57.9673	18.8313	49.289	36.172	20.44	34.5787	15.8806	54.8598	85.7401	14.2224	50.363	74.7288	-11.9586	39.5842	60.1398	-29.6423	71.243	68.1743	7.32311	58.4769	51.2153	-13.2264	40.4876	23.6167	-8.47598	83.1556	51.0008	12.7395	68.7858	33.308	-1.35749	47.8454	21.9354	4.71379	93.6632	41.7491	28.7296	82.0954	28.6152	11.8051	58.8367	13.52	13.1777	92.9098	70.5377	56.9601	94.6134	71.6385	87.5058	72.5408	87.6901	72.143	
8	0.0666667	48.5713	78.8213	71.4357	26.664	67.2195	52.965	23.5253	54.7361	33.5252	23.8983	36.7411	15.4254	67.494	85.5791	10.4108	63.3432	80.743	-14.8127	54.6838	68.6362	-31.6335	76.2756	64.3188	6.36069	55.9276	45.7258	-11.3386	36.6909	31.7662	-1.52693	80.7461	48.4878	15.3196	60.7996	32.7141	4.3762	37.8866	23.8646	21.5954	88.8376	33.4383	26.5755	67.8304	24.4926	16.3986	48.5641	17.4121	27.5635	99.3328	62.0332	57.4099	98.5327	64.4242	83.5764	81.3285	83.8436	70.2602	
9	0.075	50.334	84.2555	72.0567	28.4259	70.4209	48.8066	23.5253	57.2286	30.2633	25.7076	35.5204	13.6895	76.6013	81.7163	8.6969	71.9587	81.4815	-13.8053	63.0729	69.1937	-37.3088	76.1716	60.7413	2.15407	53.9958	42.9928	-10.376	31.4495	34.4395	2.35669	78.4613	41.3383	15.4502	54.0974	31.001	8.33357	33.4105	30.2876	27.4951	83.3585	24.8983	27.5437	59.6953	20.9319	20.7884	39.3632	26.7019	33.719	95.2364	58.9252	58.773	97.8707	59.262	81.868	87.9528	80.5479	68.9789	
10	0.0833333	55.4974	83.6054	67.2906	29.445	73.7793	44.3479	21.8279	58.1387	27.1353	26.1419	34.7875	15.1773	78.6795	81.7839	10.4683	75.4785	78.2836	-18.6927	71.4741	67.5903	-36.6461	77.4584	54.9717	3.2422	57.1746	40.3813	-10.5231	30.5278	34.3767	4.69919	74.6894	35.559	13.4605	50.0865	28.9134	10.3764	31.1218	32.7655	30.0882	78.6723	21.2319	29.1632	55.1539	21.189	23.3373	35.3886	31.6237	39.9735	96.1643	55.7221	59.8898	98.5212	58.8922	85.2996	87.8197	78.1216	67.8797	
11	0.0916667	56.3374	85.8772	71.022	35.9932	74.5569	47.5441	26.277	58.2178	24.9415	26.5061	35.1773	13.8256	80.5768	81.1258	7.45415	78.7939	74.658	-17.7374	69.8873	66.7069	-39.1362	79.1156	56.8022	6.02741	55.6167	40.9599	-10.2134	28.605	38.3348	3.67229	75.3219	35.2911	14.48	50.0207	28.352	11.9639	31.0102	36.656	32.659	75.3379	24.1755	26.8229	51.005	21.5037	25.5541	36.3989	32.1551	41.8362	98.4493	51.3584	55.7535	98.4201	57.3025	84.1106	89.0415	80.1425	63.3897	
